<svg width="17" height="28" viewBox="0 0 17 28" fill="none" xmlns="http://www.w3.org/2000/svg">
<path fill-rule="evenodd" clip-rule="evenodd" d="M15.7229 12.5271C16.1135 12.9178 16.3329 13.4476 16.3329 14C16.3329 14.5524 16.1135 15.0822 15.7229 15.4729L3.9375 27.2583C3.74532 27.4573 3.51544 27.616 3.26126 27.7252C3.00709 27.8344 2.73371 27.8919 2.45709 27.8943C2.18046 27.8967 1.90613 27.844 1.6501 27.7392C1.39406 27.6345 1.16146 27.4798 0.965846 27.2842C0.770236 27.0886 0.615542 26.856 0.51079 26.5999C0.406038 26.3439 0.353327 26.0695 0.355731 25.7929C0.358134 25.5163 0.415606 25.2429 0.524791 24.9888C0.633977 24.7346 0.792689 24.5047 0.991668 24.3125L11.3042 14L0.991668 3.68751C0.612172 3.29459 0.402184 2.76833 0.406931 2.22209C0.411678 1.67585 0.630779 1.15332 1.01705 0.767054C1.40331 0.380787 1.92584 0.161686 2.47208 0.156939C3.01833 0.152192 3.54458 0.362181 3.9375 0.741677L15.7229 12.5271Z" fill="#BDBDBD"/>
</svg>
