<svg width="41" height="41" viewBox="0 0 41 41" fill="none" xmlns="http://www.w3.org/2000/svg">
<rect x="0.673584" y="0.47052" width="40" height="40" rx="10" fill="#FAFAFA" fill-opacity="0.2"/>
<rect x="1.17358" y="0.97052" width="39" height="39" rx="9.5" stroke="black" stroke-opacity="0.5"/>
<rect x="0.673584" y="0.47052" width="40" height="40" rx="10" fill="#FAFAFA" fill-opacity="0.2"/>
<rect x="1.17358" y="0.97052" width="39" height="39" rx="9.5" stroke="black" stroke-opacity="0.5"/>
<path d="M8.17358 32.9705L9.93088 26.5507C8.8465 24.6716 8.27671 22.5414 8.27775 20.357C8.28088 13.5278 13.8382 7.97052 20.6663 7.97052C23.9798 7.97156 27.0903 9.26219 29.4298 11.6039C31.7684 13.9455 33.0559 17.058 33.0548 20.3684C33.0517 27.1986 27.4944 32.7559 20.6663 32.7559C18.5934 32.7549 16.5507 32.2351 14.7413 31.2476L8.17358 32.9705ZM15.0455 29.0049C16.7913 30.0414 18.458 30.6622 20.6621 30.6632C26.3371 30.6632 30.96 26.0445 30.9632 20.3664C30.9653 14.6768 26.3642 10.0643 20.6705 10.0622C14.9913 10.0622 10.3715 14.6809 10.3694 20.358C10.3684 22.6757 11.0475 24.4111 12.1882 26.2268L11.1475 30.0268L15.0455 29.0049ZM26.9069 23.3132C26.8298 23.1841 26.6236 23.107 26.3132 22.9518C26.0038 22.7966 24.4819 22.0476 24.1975 21.9445C23.9142 21.8414 23.708 21.7893 23.5007 22.0997C23.2944 22.4091 22.7007 23.107 22.5205 23.3132C22.3403 23.5195 22.159 23.5455 21.8496 23.3903C21.5403 23.2351 20.5423 22.9091 19.36 21.8539C18.4403 21.033 17.8184 20.0195 17.6382 19.7091C17.458 19.3997 17.6194 19.232 17.7736 19.0778C17.9132 18.9393 18.083 18.7164 18.2382 18.5351C18.3955 18.3559 18.4465 18.2268 18.5507 18.0195C18.6538 17.8132 18.6028 17.632 18.5246 17.4768C18.4465 17.3226 17.8278 15.7986 17.5705 15.1789C17.3184 14.5757 17.0632 14.657 16.8736 14.6476L16.2798 14.6372C16.0736 14.6372 15.7382 14.7143 15.4548 15.0247C15.1715 15.3351 14.3715 16.083 14.3715 17.607C14.3715 19.1309 15.4809 20.6028 15.635 20.8091C15.7903 21.0153 17.8173 24.1424 20.9225 25.483C21.6611 25.8018 22.2382 25.9924 22.6871 26.1351C23.4288 26.3705 24.1038 26.3372 24.6371 26.258C25.2319 26.1695 26.4684 25.5091 26.7267 24.7861C26.985 24.0622 26.985 23.4424 26.9069 23.3132Z" fill="#25D366"/>
</svg>
