<svg width="99" height="38" viewBox="0 0 99 38" fill="none" xmlns="http://www.w3.org/2000/svg">
<path d="M42.0027 1.72266C42.0027 2.736 41.1811 3.54666 40.1541 3.54666C39.2298 3.54666 38.4083 2.736 38.4083 1.72266C38.4083 0.810665 39.2298 0 40.1541 0C41.1811 0 42.0027 0.810665 42.0027 1.72266Z" fill="white"/>
<path d="M59.5645 38C58.5375 38 57.716 37.1894 57.716 36.176C57.716 35.264 58.5375 34.4534 59.5645 34.4534C60.4888 34.4534 61.3103 35.264 61.3103 36.176C61.3103 37.1894 60.4888 38 59.5645 38Z" fill="white"/>
<path d="M70.7581 22.8001C70.7581 23.8134 69.9365 24.5227 69.0122 24.5227C67.9853 24.5227 67.1637 23.8134 67.1637 22.8001C67.1637 21.7867 67.9853 21.0774 69.0122 21.0774C69.9365 21.0774 70.7581 21.7867 70.7581 22.8001Z" fill="white"/>
<path fill-rule="evenodd" clip-rule="evenodd" d="M69.6286 38.0001H68.499C65.3154 38.0001 62.7479 35.4667 62.7479 32.4267V26.5494C62.7479 24.8267 61.4129 23.4081 59.667 23.4081H59.3589C57.6131 23.4081 56.1753 24.8267 56.1753 26.5494V32.4267C56.1753 35.4667 53.6079 38.0001 50.527 38.0001H49.7054C46.5218 38.0001 43.9544 35.4667 43.9544 32.4267V18.4427H43.8517C42.1058 18.4427 40.668 19.7601 40.668 21.4827V32.4267C40.668 35.4667 38.2033 38.0001 35.0197 38.0001H28.6525C25.5716 38.0001 23.0042 35.4667 23.0042 32.4267V26.5494C23.0042 24.8267 21.5664 23.4081 19.9232 23.4081H1.23237C0.616183 23.4081 0 22.8001 0 22.1921C0 21.4827 0.616183 20.8747 1.23237 20.8747H19.9232C23.0042 20.8747 25.5716 23.4081 25.5716 26.5494V32.4267C25.5716 34.1494 27.0093 35.4667 28.6525 35.4667H35.0197C36.7656 35.4667 38.2033 34.1494 38.2033 32.4267V21.4827C38.2033 18.4427 40.6681 15.9094 43.8517 15.9094H43.9544V5.67477C43.9544 2.63477 46.5218 0.10144 49.7054 0.10144C52.7863 0.10144 55.3537 2.63477 55.3537 5.67477V12.7681C55.3537 15.9094 52.7863 18.4427 49.7054 18.4427H46.5218V32.4267C46.5218 34.1494 47.9595 35.4667 49.7054 35.4667H50.527C52.2728 35.4667 53.6079 34.1494 53.6079 32.4267V26.5494C53.6079 23.4081 56.1753 20.8747 59.3589 20.8747H59.667C62.7479 20.8747 65.3154 23.4081 65.3154 26.5494V32.4267C65.3154 34.1494 66.7531 35.4667 68.499 35.4667H69.6286C71.3745 35.4667 72.8122 34.1494 72.8122 32.4267V26.5494C72.8122 23.4081 75.277 20.8747 78.4606 20.8747H97.6649C98.3838 20.8747 99 21.4827 99 22.1921C99 22.8001 98.3838 23.4081 97.6649 23.4081H78.4606C76.7147 23.4081 75.277 24.8267 75.277 26.5494V32.4267C75.277 35.4667 72.8122 38.0001 69.6286 38.0001ZM46.5218 15.9094H49.7054C51.3485 15.9094 52.7863 14.4908 52.7863 12.7681V5.67477C52.7863 4.05343 51.3485 2.63477 49.7054 2.63477C47.9595 2.63477 46.5218 4.05343 46.5218 5.67477V15.9094Z" fill="white"/>
</svg>
